PathFileType	4	(X/Y/Z)	Kaydara																																																																																																																									
DataRate	CameraRate	NumFrames	NumMarkers	Units	OrigDataRate	OrigDataStartFrame	OrigNumFrames																																																																																																																					
30	30	6	41	mm	30	62	148																																																																																																																					
Frame#	Time	SALE_LFHD			SALE_RFHD			SALE_LBHD			SALE_RBHD			SALE_LFTShould			SALE_RFTShould			SALE_LRRShould			SALE_RRRShould			SALE_T10			SALE_STRN			SALE_TRUN			SALE_LSHO			SALE_LUPA			SALE_LELB			SALE_LFRM			SALE_LWRA			SALE_LWRB			SALE_LFIN			SALE_RSHO			SALE_RUPA			SALE_RELB			SALE_RFRM			SALE_RWRB			SALE_RFIN			SALE_LFWT			SALE_RFWT			SALE_LBWT			SALE_RBWT			SALE_LTHI			SALE_LKNE			SALE_RWRA			SALE_LSHN			SALE_LANK			SALE_LHEE			SALE_LTOE			SALE_RTHI			SALE_RKNE			SALE_RSHN			SALE_RANK			SALE_RHEE			SALE_RTOE		
		X1	Y1	Z1	X2	Y2	Z2	X3	Y3	Z3	X4	Y4	Z4	X5	Y5	Z5	X6	Y6	Z6	X7	Y7	Z7	X8	Y8	Z8	X9	Y9	Z9	X10	Y10	Z10	X11	Y11	Z11	X12	Y12	Z12	X13	Y13	Z13	X14	Y14	Z14	X15	Y15	Z15	X16	Y16	Z16	X17	Y17	Z17	X18	Y18	Z18	X19	Y19	Z19	X20	Y20	Z20	X21	Y21	Z21	X22	Y22	Z22	X23	Y23	Z23	X24	Y24	Z24	X25	Y25	Z25	X26	Y26	Z26	X27	Y27	Z27	X28	Y28	Z28	X29	Y29	Z29	X30	Y30	Z30	X31	Y31	Z31	X32	Y32	Z32	X33	Y33	Z33	X34	Y34	Z34	X35	Y35	Z35	X36	Y36	Z36	X37	Y37	Z37	X38	Y38	Z38	X39	Y39	Z39	X40	Y40	Z40	X41	Y41	Z41
																																																																																																																												
38	2.033	195.60707	1627.41531	-1847.50916	61.76714	1627.57385	-1844.65057	188.04932	1609.10965	-1981.44745	60.22388	1608.29514	-1972.42142	200.47159	1367.88864	-1901.01776	61.08305	1364.33136	-1887.16873	182.72898	1430.9668	-2010.47104	34.01982	1432.93503	-1986.79565	101.38618	1283.20496	-2077.2374	131.87926	1290.40848	-1851.93359	134.57489	1201.73859	-1817.29492	305.95041	1398.23135	-1978.09784	347.90752	1185.32204	-2008.57391	331.23405	1075.65231	-2034.01993	362.42374	967.98752	-2008.38043	308.95672	830.82436	-1934.21295	367.8038	821.82144	-1980.65521	371.33022	780.88356	-1931.09451	-51.02512	1395.59326	-1933.24783	-92.27901	1169.96902	-2004.16458	-114.33292	1067.19574	-1961.38031	-106.95508	953.56468	-1977.89536	-121.38412	813.73894	-1937.51877	-125.35127	771.75446	-1884.70642	257.88546	960.02571	-1904.90265	-21.12112	956.64948	-1893.59222	195.79084	1017.20734	-2070.08331	17.8777	1029.05739	-2058.88336	244.61241	638.22441	-1965.93506	226.92194	506.76342	-1825.10193	-71.66584	823.25249	-1885.09476	238.49894	317.41079	-1921.14212	251.42538	186.54737	-2060.4924	214.48595	168.01479	-2143.49182	229.84129	92.42971	-1965.06836	-30.10819	719.53171	-2073.01331	7.10973	551.83628	-1992.8125	67.40214	365.63385	-2034.51111	40.63154	119.41835	-2123.80951	94.32455	63.72808	-2200.56335	58.30413	81.33329	-2010.15182
39	2.067	193.00573	1625.89645	-1829.73129	59.17543	1625.76569	-1826.60339	185.16773	1607.47223	-1963.65692	57.42376	1606.41434	-1954.30862	198.57355	1366.07895	-1885.14023	59.40013	1362.07626	-1868.94958	178.71126	1429.93896	-1993.78922	30.28148	1431.54831	-1967.5592	96.30695	1282.64313	-2060.40726	130.65755	1287.96417	-1835.4306	133.91074	1199.07448	-1801.73477	302.6593	1397.12357	-1964.2836	343.51635	1184.75922	-1999.66293	325.83553	1075.3376	-2025.98053	357.69051	967.33788	-2003.11096	306.42778	829.06181	-1929.20807	364.7966	821.90887	-1977.8157	368.77701	779.105	-1928.67096	-53.7289	1393.27911	-1913.00507	-96.23363	1168.14354	-1985.34393	-117.47784	1064.88655	-1943.19687	-110.55871	951.62941	-1961.45035	-123.92883	811.28441	-1922.5563	-127.05923	768.71994	-1870.29877	255.64419	960.24055	-1891.1377	-24.07557	952.94907	-1880.27054	192.17155	1016.8026	-2056.74133	14.3291	1027.72415	-2044.87122	243.58097	640.27985	-1938.7561	226.79468	516.44577	-1790.23041	-73.40578	820.20615	-1871.11771	233.41635	326.69601	-1886.43051	241.81446	196.44672	-2026.68304	203.5128	178.61849	-2108.90427	220.14038	102.09803	-1931.82526	-32.00572	719.44595	-2065.86212	4.13195	549.78302	-1988.94318	65.39128	365.03067	-2032.32971	39.98758	119.51238	-2124.45023	94.10834	63.50506	-2200.63171	57.22351	80.96368	-2010.49988
40	2.1	190.90612	1625.1474	-1810.6694	57.08484	1624.9025	-1807.26776	182.747	1606.38458	-1944.52118	55.10173	1605.15747	-1934.87762	196.82966	1364.85626	-1867.04315	58.13605	1360.42267	-1848.99734	175.10715	1429.71695	-1975.10437	26.9932	1431.09802	-1946.26862	91.47464	1282.90024	-2041.47568	129.48522	1286.18073	-1816.94336	133.11403	1196.92406	-1784.13284	299.43048	1396.14166	-1947.98752	338.85872	1184.5842	-1988.59787	320.41325	1075.68947	-2016.34308	353.09734	967.30446	-1997.13638	304.98653	827.14111	-1924.44016	359.81644	819.3248	-1978.98483	367.15065	777.40562	-1928.23303	-56.39055	1392.23801	-1891.25687	-99.79067	1167.36008	-1964.32373	-120.1264	1063.80287	-1922.70035	-113.91644	951.08299	-1943.02643	-126.34111	810.05791	-1905.72311	-128.45192	766.90369	-1854.06036	251.73437	961.17905	-1875.80734	-27.68475	950.09239	-1867.94312	189.69309	1017.85843	-2040.8371	12.08041	1026.67236	-2030.59387	243.04157	644.45961	-1913.54462	227.81141	526.5728	-1758.63556	-74.38483	817.96867	-1855.47058	228.53687	331.8325	-1847.10648	230.51863	196.29368	-1982.70157	188.83472	175.83094	-2062.77863	211.06874	105.16839	-1883.75824	-30.93281	718.85208	-2056.85013	3.3717	547.90489	-1980.72586	65.37692	363.29594	-2026.55609	40.12608	119.78037	-2124.0329	94.0421	64.76767	-2200.93094	56.47571	80.41412	-2010.24048
41	2.133	189.56253	1624.37286	-1790.38864	55.14697	1624.64584	-1786.92505	180.82502	1604.68674	-1924.0596	53.43454	1603.61343	-1913.69949	194.91817	1363.50204	-1846.54251	56.17986	1359.43924	-1827.15378	171.90233	1429.35867	-1953.67233	24.42123	1430.65567	-1923.70728	87.31458	1283.56918	-2020.85114	127.51949	1284.58496	-1796.70242	131.2251	1194.95209	-1764.91608	296.45855	1395.27298	-1928.86139	334.47231	1185.06432	-1975.28809	315.17799	1077.09167	-2005.58807	348.79868	968.3886	-1990.55099	303.64126	825.54298	-1920.73151	357.47654	821.23489	-1974.89334	365.55527	776.15669	-1928.45535	-58.65465	1392.46552	-1868.48145	-102.84384	1167.91603	-1941.72089	-122.1796	1064.02298	-1900.72556	-116.30365	951.62697	-1922.52762	-128.41761	809.96208	-1887.04086	-129.60957	765.99472	-1836.04889	248.63295	962.17987	-1858.1102	-31.16839	947.35474	-1853.20618	187.98733	1018.56522	-2023.48175	10.62004	1024.80583	-2015.13992	243.58347	648.40607	-1890.14694	228.94962	534.79553	-1730.46234	-75.57988	817.31224	-1837.50168	225.07473	333.26782	-1804.72366	219.73347	187.05656	-1928.51807	174.06389	160.77927	-2004.73236	203.99944	103.76235	-1822.22824	-27.44689	717.09099	-2044.81705	4.18226	545.44468	-1970.00519	66.63444	360.95592	-2018.84521	40.93837	120.20703	-2122.95029	94.67959	65.75069	-2200.51239	56.52052	80.19299	-2009.80408
42	2.167	188.4202	1622.84805	-1768.78128	53.8188	1623.75931	-1765.1918	179.24238	1602.02454	-1902.24213	51.89642	1601.53824	-1891.50726	192.86041	1361.53473	-1823.78845	53.87782	1357.81982	-1804.03549	169.18659	1428.03009	-1930.01877	22.24763	1429.82956	-1900.04517	83.91788	1283.43353	-1998.71887	125.12392	1282.44507	-1774.80225	128.60572	1192.46201	-1743.95111	293.7031	1393.47336	-1906.94824	330.75172	1186.22482	-1962.58408	310.73092	1078.37563	-1993.14331	344.98009	969.30756	-1982.48138	302.0005	824.05563	-1916.85135	354.35253	821.63574	-1972.5705	363.34248	774.97787	-1927.91794	-60.45067	1391.37589	-1844.44534	-105.77179	1167.92313	-1918.44269	-124.15356	1063.78929	-1878.12042	-118.32752	951.51604	-1900.64484	-130.11226	809.22523	-1866.18011	-130.92837	764.94865	-1815.74844	246.67303	962.68875	-1839.16977	-33.00657	943.45985	-1836.08521	186.27728	1018.38486	-2004.8851	8.95836	1021.47949	-1997.7507	246.45157	650.24841	-1865.31998	228.45604	539.79782	-1705.46478	-77.18228	816.61674	-1816.57547	222.04674	331.11664	-1759.05502	211.74829	171.38239	-1864.33716	163.63258	137.10572	-1935.72067	198.12923	100.73787	-1748.90778	-24.14383	714.83376	-2030.70755	5.42305	542.55154	-1958.60733	68.43165	358.69461	-2011.22879	41.65697	120.92218	-2121.55945	95.10454	67.53819	-2200.14328	56.87663	80.01089	-2009.72565
43	2.2	188.09206	1619.92371	-1746.19843	54.02788	1621.33713	-1741.48712	178.16011	1598.36273	-1879.38431	50.72687	1598.64365	-1868.22662	190.97395	1358.01361	-1799.198	51.89958	1354.74503	-1779.3985	167.01941	1425.09094	-1904.94339	20.16695	1427.34161	-1875.29922	81.30396	1281.42578	-1975.10315	122.96093	1278.84262	-1751.00906	126.0688	1188.28308	-1721.06171	291.33804	1389.8941	-1882.93716	327.78427	1184.39049	-1943.80432	306.91885	1078.42506	-1979.75113	341.53175	968.92914	-1973.14133	297.9266	820.59097	-1913.96713	351.16806	820.99167	-1968.84293	360.58872	772.79045	-1926.18607	-62.49041	1389.25018	-1819.91318	-108.22959	1166.17142	-1895.25162	-126.59138	1061.77391	-1854.93423	-120.54919	949.44855	-1877.50565	-131.85884	807.12387	-1842.84576	-132.51697	762.85965	-1792.36526	245.69368	961.72546	-1818.85086	-33.53378	938.38776	-1816.24283	185.19962	1016.56204	-1985.13214	7.90218	1017.33147	-1978.31558	250.16878	649.03725	-1843.8028	226.35601	540.05951	-1683.26477	-79.04925	814.82552	-1793.18222	219.44927	326.47026	-1710.8786	207.37244	153.64657	-1792.28439	158.74763	110.67095	-1858.12881	193.53329	98.70612	-1667.82364	-22.25854	713.00018	-2014.78851	6.25713	539.76032	-1946.9957	69.59802	357.10659	-2004.26361	42.24645	122.18345	-2120.2002	95.24069	70.44205	-2199.74289	56.97967	79.82928	-2009.60114
